<?xml version="1.0" encoding="utf-8"?>
<!-- Generator: Adobe Illustrator 26.5.0, SVG Export Plug-In . SVG Version: 6.00 Build 0)  -->
<svg version="1.1" id="Слой_1" xmlns="http://www.w3.org/2000/svg" xmlns:xlink="http://www.w3.org/1999/xlink" x="0px" y="0px"
	 viewBox="0 0 22 22" style="enable-background:new 0 0 22 22;" xml:space="preserve" fill="currentColor">
<path class="st0" d="M11.02,0C5.19,0,0.26,5.74,1.74,11.37C2.1,12.74,2.48,14,2.93,15.13c-0.7,0.78-0.4,2.29,0.27,3.02
	c0.41,0.45,1.33,1.21,2.1,1.53c0.62-0.09,2.44-0.19,2.33,1.73c0.21,0.09,0.43,0.16,0.66,0.23v-0.76h0.27v0.84
	c0.37,0.09,0.75,0.17,1.16,0.22v-1.05h0.27v1.08c0.37,0.04,0.75,0.05,1.15,0.05h0.01v-1.13h0.27v1.13c0.39-0.01,0.77-0.03,1.14-0.08
	v-1.05h0.27v1.01c0.38-0.06,0.75-0.13,1.1-0.23v-0.78h0.27v0.69c0.16-0.05,0.31-0.11,0.46-0.17c-0.31-2.41,2.13-2,2.47-1.93
	c0.8-0.27,1.8-1.11,2.24-1.58c0.7-0.76,1-2.36,0.18-3.11c-0.03-0.03-0.06-0.04-0.09-0.07c0.3-0.88,0.57-1.85,0.82-2.9
	C21.64,6.13,16.84,0,11.02,0z M8.79,14.43c-1,0.73-2.09,2.12-3.42,1.31C4.03,14.93,4,11.96,4.78,10.78
	c0.67-1.01,4.53-0.77,5.02,0.08C10.3,11.71,9.79,13.71,8.79,14.43z M12.34,18.01c-0.12,0.37-0.89-0.12-1.23-0.36
	c-0.34,0.24-1.11,0.73-1.23,0.36c-0.16-0.48,0.84-3.46,0.96-3.7c0.04-0.07,0.09-0.13,0.15-0.18c0.03-0.05,0.07-0.07,0.12-0.06h0.01
	h0.01c0.05,0,0.09,0.01,0.12,0.06c0.06,0.04,0.11,0.11,0.15,0.18C11.51,14.55,12.5,17.53,12.34,18.01z M17.09,15.51
	c-1.28,0.9-2.46-0.42-3.5-1.08c-1.05-0.66-1.69-2.61-1.25-3.5c0.44-0.88,4.27-1.38,5.01-0.42C18.2,11.64,18.37,14.61,17.09,15.51z"
	/>
</svg>
