<?xml version="1.0" encoding="utf-8"?>
<!-- Generator: Adobe Illustrator 26.5.0, SVG Export Plug-In . SVG Version: 6.00 Build 0)  -->
<svg version="1.1" id="Слой_1" xmlns="http://www.w3.org/2000/svg" xmlns:xlink="http://www.w3.org/1999/xlink" x="0px" y="0px"
	 viewBox="0 0 22 22" style="enable-background:new 0 0 22 22;" xml:space="preserve" fill="currentColor">
<path class="st0" d="M22,10.76c0-0.11-0.01-0.21-0.02-0.26C21.71,4.61,16.89,0,11,0S0.29,4.61,0.03,10.44
	C0.01,10.55,0,10.65,0,10.76l0,0.13c0,0.04,0,0.07,0,0.11c0,6.07,4.93,11,11,11s11-4.93,11-11c0-0.04,0-0.08-0.01-0.14L22,10.76z
	 M12.57,18.69v-3.76c0-0.87-0.7-1.57-1.57-1.57s-1.57,0.7-1.57,1.57v3.76c-3.17-0.64-5.62-3.17-6.17-6.36h3.81
	c0.87,0,1.57-0.71,1.57-1.57c0-0.87-0.7-1.57-1.57-1.57H3.36c0.7-2.98,3.06-5.27,6.07-5.88v3.76c0,0.87,0.7,1.57,1.57,1.57
	s1.57-0.7,1.57-1.57V3.31c3,0.61,5.36,2.9,6.07,5.88h-3.71c-0.87,0-1.57,0.7-1.57,1.57s0.7,1.57,1.57,1.57h3.81
	C18.19,15.52,15.74,18.04,12.57,18.69z"/>
</svg>
