<svg version="1.1" id="Layer_1" xmlns="http://www.w3.org/2000/svg" x="0" y="0" viewBox="0 0 15 14.9" xml:space="preserve"><style>.st0{fill:#FFFFFF;}</style><g id="Layer_2_1_"><g id="Layer_3"><g id="Layer_4"><path class="st0" d="M15 6.6v1.5h-1.8-.1v.1c-.1.5-.2.9-.4 1.3-.3.7-.8 1.4-1.4 2-.5.5-1.1.9-1.8 1.2-.3.1-.7.3-1.2.3v1.9H6.8v-.5-1.3-.1c-.2 0-.3-.1-.5-.1-.9-.2-1.7-.6-2.4-1.2s-1.3-1.3-1.6-2.2c-.2-.4-.3-.8-.4-1.3H0V6.7h1.8c.1 0 .1 0 .1-.1 0-.5.1-.9.3-1.4.4-1 1-1.8 1.9-2.4.5-.4 1.1-.7 1.7-.9.3-.1.7-.2 1-.2v-.1V0v-.1h1.5V1.6h.1c.6.2 1.1.4 1.6.6 1.3.6 2.2 1.6 2.8 2.9.2.5.3 1 .4 1.4H14.6c.1.1.3.1.4.1zM3.4 8.1c.2.8.5 1.6 1.1 2.2.6.7 1.4 1.1 2.3 1.2V9.6h1.5v1.9c1-.2 1.9-.7 2.5-1.5.5-.6.8-1.2.9-1.9H9.8V6.6h1.9c-.1-.7-.5-1.7-1.4-2.4-.6-.5-1.3-.8-2-1v1.9H6.8V3.2c-.2 0-1 .3-1.3.5-.7.4-1.3 1-1.6 1.7-.3.4-.4.8-.5 1.2h1.9v1.5H3.4z" id="Layer_5"/></g></g></g></svg>