<svg xmlns="http://www.w3.org/2000/svg" viewBox="0 0 118.3 117.2"><path d="M103.452 48.8c0 7.646-.023 15.292.025 22.938.007 1.136-.325 1.826-1.292 2.459-3.857 2.524-7.632 5.174-11.488 7.699-.963.631-1.314 1.314-1.301 2.454.059 5.055-.007 10.111.052 15.165.013 1.099-.339 1.683-1.314 2.195a4382.894 4382.894 0 00-28.101 14.9c-.923.493-1.626.555-2.588.039a3556.43 3556.43 0 00-28.1-14.903c-1.049-.55-1.395-1.184-1.381-2.345.063-5.055.078-10.111-.028-15.165-.016-.766-.575-1.783-1.205-2.231-3.756-2.671-7.588-5.237-11.439-7.771-.934-.615-1.363-1.25-1.36-2.423.042-15.292.042-30.584 0-45.877-.003-1.181.397-1.782 1.408-2.335C29.345 15.929 43.331 8.225 57.301.49c.988-.547 1.717-.61 2.746-.04a9680.208 9680.208 0 0042.127 23.202c.96.526 1.31 1.113 1.303 2.209-.048 7.646-.025 15.292-.025 22.939zm-79.627 2.145c0 5.323-.036 10.29.057 15.256.009.488.725 1.095 1.253 1.419 4.139 2.538 8.341 4.974 12.454 7.553 1.1.69 1.849.577 2.857-.094 2.572-1.711 5.221-3.305 7.833-4.957 1.244-.787 2.473-1.599 3.921-2.537l-28.375-16.64zm41.336 16.672c4.392 2.765 8.428 5.337 12.514 7.829.401.245 1.224.187 1.655-.065a798.018 798.018 0 0013.305-7.973c.416-.254.906-.818.911-1.245.064-4.957.041-9.916.041-15.22L65.161 67.617z" fill="#fff"/></svg>